<?xml version="1.0" encoding="iso-8859-1"?>
<!-- Uploaded to: SVG Repo, www.svgrepo.com, Generator: SVG Repo Mixer Tools -->
<svg fill="#000000" height="800px" width="800px" version="1.1" id="Layer_1" xmlns="http://www.w3.org/2000/svg" xmlns:xlink="http://www.w3.org/1999/xlink" 
	 viewBox="0 0 512 512" xml:space="preserve">
<g>
	<g>
		<path d="M420.319,75.774l-9.439-0.841c-0.395-0.035-7.941-0.691-19.3-0.772c3.792-18.43,3.951-33.663,3.956-34.406l0.062-8.97
			l-8.848,1.479c-0.956,0.16-21.698,3.693-43.742,12.43C331.897,23.747,318.4,7.607,317.776,6.866L312.001,0l-5.77,6.869
			c-0.478,0.568-10.238,12.268-19.304,28.755c-8.695-7.301-14.87-11.701-15.192-11.93l-7.729-5.48l-3.607,8.76
			c-0.363,0.881-3.722,9.162-7.087,21.383c-3.366-12.221-6.725-20.501-7.087-21.383l-3.608-8.76l-7.729,5.48
			c-0.323,0.229-6.496,4.628-15.192,11.929c-9.067-16.488-18.826-28.186-19.304-28.755L194.619,0l-5.775,6.864
			c-0.625,0.742-14.121,16.883-25.233,37.829c-22.044-8.737-42.785-12.27-43.742-12.43l-8.848-1.479l0.062,8.97
			c0.005,0.743,0.164,15.978,3.955,34.407c-11.358,0.082-18.905,0.736-19.3,0.771L86.3,75.773l2.937,9.01
			c0.585,1.795,12.54,37.85,36.167,64.373h-20.324l105.648,225.671L186.381,512h133.858l-24.347-137.171L401.54,149.158h-20.323
			c23.627-26.524,35.581-62.578,36.166-64.373L420.319,75.774z M331.744,66.587c0.999-0.555,2.024-1.105,3.073-1.649
			c0.246-0.128,0.5-0.253,0.749-0.38c0.846-0.431,1.708-0.859,2.586-1.283c0.306-0.148,0.609-0.295,0.919-0.441
			c1.121-0.531,2.26-1.059,3.431-1.578l0.039-0.017c13.889-6.144,28.321-10.056,37.397-12.162
			c-0.534,6.448-1.625,15.576-3.847,25.351c-0.692,0.029-1.375,0.066-2.062,0.1c-0.426,0.021-0.857,0.039-1.281,0.062
			c-1.346,0.072-2.685,0.152-4.013,0.242c-0.133,0.009-0.262,0.02-0.395,0.029c-1.196,0.083-2.382,0.173-3.561,0.272
			c-0.416,0.034-0.827,0.072-1.241,0.109c-0.894,0.078-1.784,0.159-2.667,0.246c-0.466,0.045-0.928,0.094-1.391,0.142
			c-0.834,0.086-1.663,0.177-2.487,0.272c-0.46,0.052-0.919,0.105-1.377,0.16c-0.862,0.104-1.717,0.213-2.567,0.325
			c-0.39,0.051-0.784,0.101-1.173,0.154c-1.226,0.168-2.442,0.343-3.642,0.528c-1.461,0.225-2.898,0.47-4.322,0.722
			c-0.358,0.063-0.714,0.127-1.069,0.192c-1.409,0.257-2.805,0.524-4.174,0.807c-0.051,0.01-0.1,0.022-0.151,0.032
			c-1.325,0.276-2.625,0.566-3.912,0.866c-0.341,0.079-0.681,0.159-1.019,0.24c-1.307,0.313-2.601,0.635-3.864,0.971
			c-0.018,0.005-0.036,0.009-0.054,0.014c-0.016-0.023-0.033-0.047-0.049-0.07c-0.014-0.02-0.028-0.04-0.042-0.06
			c-0.517-0.746-1.045-1.496-1.585-2.248c-0.2-0.28-0.408-0.559-0.612-0.839c-0.364-0.5-0.729-1-1.103-1.501
			c-0.242-0.325-0.492-0.652-0.739-0.979c-0.351-0.463-0.702-0.926-1.061-1.39c-0.26-0.337-0.525-0.674-0.79-1.012
			c-0.207-0.263-0.408-0.527-0.618-0.791c0.703-0.498,1.41-0.995,2.15-1.485c0.1-0.066,0.206-0.131,0.307-0.197
			c0.791-0.519,1.607-1.034,2.441-1.544c0.268-0.164,0.539-0.328,0.812-0.491c0.775-0.465,1.568-0.926,2.378-1.384
			C331.354,66.81,331.545,66.698,331.744,66.587z M312.059,24.082c4.618,6.238,11.25,15.841,17.142,26.781
			c-0.337,0.17-0.665,0.344-0.998,0.515c-0.183,0.095-0.367,0.189-0.55,0.284c-1.178,0.613-2.33,1.236-3.455,1.865
			c-0.178,0.1-0.355,0.2-0.532,0.3c-1.127,0.638-2.232,1.283-3.306,1.937c-0.139,0.084-0.275,0.17-0.411,0.254
			c-1.104,0.679-2.185,1.365-3.231,2.06c-0.056,0.037-0.11,0.075-0.166,0.113c-1.06,0.707-2.09,1.423-3.088,2.147
			c-0.052,0.038-0.107,0.075-0.159,0.113c-0.034,0.025-0.071,0.05-0.106,0.075c-0.076-0.083-0.158-0.167-0.235-0.25
			c-1.03-1.113-2.077-2.227-3.149-3.344c-0.168-0.175-0.344-0.351-0.513-0.526c-0.916-0.948-1.844-1.897-2.79-2.845
			c-0.391-0.393-0.791-0.785-1.189-1.18c-0.749-0.742-1.504-1.484-2.271-2.228c-0.439-0.425-0.882-0.851-1.327-1.277
			c-0.77-0.737-1.551-1.473-2.338-2.209c-0.285-0.266-0.558-0.532-0.845-0.797C303.183,37.012,308.28,29.348,312.059,24.082z
			 M270.995,42.088c3.62,2.874,8.21,6.664,13.224,11.142c1.056,0.943,2.098,1.887,3.125,2.831c2.014,1.852,3.971,3.706,5.87,5.557
			c1.006,0.981,1.995,1.96,2.967,2.94c2.758,2.78,5.375,5.55,7.846,8.303c0.043,0.048,0.089,0.097,0.132,0.145
			c0.836,0.933,1.655,1.864,2.457,2.794c5.288,6.128,9.809,12.157,13.439,17.92c3.873,6.143,6.782,12.064,8.651,17.594
			c2.354,6.97,3.966,13.535,4.792,19.512c0.304,2.203,0.504,4.417,0.592,6.575c0.04,0.971,0.047,1.917,0.038,2.849
			c-0.003,0.268-0.011,0.529-0.017,0.793c-0.017,0.7-0.048,1.387-0.094,2.063c-0.016,0.243-0.029,0.489-0.049,0.729
			c-0.072,0.876-0.164,1.737-0.284,2.57c-0.013,0.091-0.032,0.178-0.046,0.27c-0.113,0.74-0.246,1.461-0.396,2.166
			c-0.023,0.108-0.049,0.211-0.072,0.318h-55.477c-4.905-6.993-9.127-15.686-12.577-25.895
			C255.798,95.684,265.437,59.062,270.995,42.088z M253.309,134.845c2.019,5.138,4.247,9.917,6.673,14.311h-13.348
			C249.063,144.762,251.29,139.984,253.309,134.845z M222.401,53.231l0.055-0.049c4.994-4.46,9.568-8.235,13.174-11.099
			c5.567,16.954,15.212,53.536,5.875,81.18c-3.448,10.208-7.671,18.901-12.577,25.895h-55.477c-0.023-0.106-0.049-0.209-0.072-0.316
			c-0.15-0.702-0.283-1.419-0.394-2.155c-0.015-0.097-0.034-0.189-0.048-0.287c-0.12-0.831-0.21-1.686-0.283-2.558
			c-0.02-0.247-0.034-0.502-0.05-0.752c-0.044-0.667-0.075-1.346-0.093-2.035c-0.007-0.269-0.015-0.538-0.018-0.812
			c-0.009-0.93-0.001-1.874,0.038-2.843c0.065-1.582,0.209-3.195,0.391-4.813c0.066-0.587,0.12-1.175,0.201-1.762
			c0.825-5.978,2.437-12.543,4.792-19.513c1.868-5.532,4.779-11.451,8.65-17.594c0.454-0.72,0.922-1.445,1.404-2.173
			c2.653-4.013,5.729-8.143,9.171-12.332c0.931-1.134,1.881-2.272,2.866-3.413c2.404-2.786,4.966-5.594,7.675-8.415
			C212.195,62.683,217.119,57.947,222.401,53.231z M194.558,24.082c3.781,5.266,8.877,12.929,13.516,21.788
			c-0.278,0.257-0.542,0.515-0.818,0.773c-0.805,0.752-1.602,1.504-2.389,2.258c-0.43,0.411-0.858,0.823-1.283,1.234
			c-0.785,0.76-1.56,1.522-2.326,2.282c-0.381,0.377-0.765,0.755-1.141,1.132c-0.952,0.956-1.889,1.912-2.812,2.867
			c-0.167,0.172-0.339,0.345-0.505,0.517c-1.068,1.112-2.112,2.223-3.138,3.333c-0.08,0.086-0.165,0.174-0.245,0.26
			c-0.031-0.022-0.063-0.044-0.094-0.067c-0.065-0.047-0.134-0.094-0.199-0.142c-0.986-0.714-2.001-1.42-3.047-2.118
			c-0.061-0.041-0.121-0.082-0.182-0.124c-1.044-0.694-2.123-1.378-3.225-2.055c-0.139-0.085-0.276-0.171-0.415-0.256
			c-1.074-0.654-2.177-1.298-3.305-1.936c-0.176-0.1-0.352-0.199-0.53-0.299c-1.126-0.631-2.28-1.253-3.458-1.866
			c-0.182-0.095-0.365-0.189-0.548-0.283c-0.333-0.172-0.661-0.345-0.999-0.516C183.309,39.923,189.942,30.32,194.558,24.082z
			 M164.116,61.254c1.172,0.519,2.31,1.047,3.432,1.578c0.307,0.146,0.608,0.292,0.912,0.438c0.888,0.428,1.759,0.861,2.615,1.297
			c0.237,0.122,0.48,0.241,0.715,0.363c1.057,0.548,2.09,1.101,3.095,1.661c0.184,0.103,0.361,0.206,0.543,0.31
			c0.831,0.469,1.642,0.941,2.436,1.417c0.256,0.154,0.512,0.308,0.764,0.463c0.862,0.527,1.705,1.059,2.521,1.595
			c0.077,0.05,0.158,0.101,0.234,0.151c0.745,0.493,1.456,0.993,2.163,1.493c-0.224,0.282-0.438,0.562-0.66,0.844
			c-0.242,0.309-0.486,0.618-0.724,0.927c-0.385,0.498-0.762,0.995-1.137,1.49c-0.222,0.294-0.447,0.587-0.666,0.881
			c-0.406,0.544-0.802,1.087-1.197,1.629c-0.174,0.239-0.353,0.481-0.525,0.719c-0.532,0.74-1.052,1.477-1.561,2.212
			c-0.027,0.04-0.056,0.079-0.083,0.12c-0.015,0.022-0.031,0.044-0.046,0.066c-0.019-0.005-0.04-0.01-0.059-0.015
			c-1.261-0.337-2.552-0.658-3.857-0.97c-0.339-0.081-0.68-0.162-1.022-0.241c-1.286-0.3-2.586-0.59-3.91-0.866
			c-0.051-0.01-0.1-0.022-0.151-0.032c-1.369-0.284-2.765-0.549-4.172-0.807c-0.356-0.065-0.713-0.129-1.071-0.193
			c-1.424-0.252-2.86-0.496-4.321-0.722c-1.2-0.185-2.416-0.36-3.641-0.528c-0.388-0.053-0.783-0.103-1.175-0.154
			c-0.851-0.112-1.705-0.221-2.567-0.325c-0.456-0.054-0.915-0.107-1.374-0.16c-0.826-0.095-1.655-0.185-2.491-0.272
			c-0.461-0.048-0.922-0.096-1.386-0.141c-0.887-0.086-1.781-0.168-2.678-0.247c-0.409-0.036-0.817-0.073-1.229-0.108
			c-1.191-0.099-2.389-0.19-3.598-0.273c-0.12-0.008-0.237-0.018-0.358-0.026c-1.329-0.091-2.671-0.17-4.022-0.243
			c-0.416-0.022-0.837-0.04-1.254-0.06c-0.693-0.034-1.384-0.071-2.082-0.101c-2.214-9.755-3.307-18.895-3.844-25.355
			C135.754,51.173,150.181,55.084,164.116,61.254z M107.105,89.413c4.619-0.158,10.572-0.251,17.292-0.096
			c11.323,0.264,21.982,1.156,31.684,2.655c1.058,0.163,2.103,0.335,3.139,0.513c0.346,0.059,0.685,0.124,1.029,0.185
			c0.686,0.122,1.37,0.244,2.044,0.373c0.398,0.075,0.789,0.156,1.184,0.233c0.611,0.121,1.221,0.242,1.823,0.369
			c0.405,0.085,0.805,0.173,1.207,0.26c0.584,0.127,1.167,0.256,1.742,0.389c0.182,0.042,0.362,0.086,0.543,0.128
			c-0.122,0.236-0.229,0.471-0.349,0.707c-0.309,0.611-0.61,1.221-0.902,1.828c-0.178,0.37-0.351,0.74-0.522,1.109
			c-0.278,0.599-0.546,1.196-0.807,1.791c-0.155,0.354-0.312,0.709-0.461,1.061c-0.271,0.642-0.527,1.279-0.778,1.916
			c-0.117,0.296-0.239,0.593-0.352,0.889c-0.353,0.926-0.689,1.847-0.998,2.762c-0.332,0.984-0.652,1.961-0.957,2.932
			c-2.144,6.799-3.651,13.295-4.486,19.347v0.001c-0.37,2.682-0.612,5.379-0.721,8.016v0.002c-0.044,1.079-0.063,2.144-0.06,3.195
			c0.001,0.376,0.021,0.741,0.029,1.113c0.013,0.667,0.022,1.338,0.054,1.991c0.022,0.434,0.064,0.857,0.095,1.285
			c0.041,0.579,0.075,1.163,0.133,1.732c0.044,0.439,0.108,0.866,0.162,1.299c0.067,0.544,0.127,1.092,0.209,1.626
			c0.007,0.044,0.01,0.09,0.017,0.134h-11.081C126.644,132.429,113.101,104.031,107.105,89.413z M302.241,496.915h-97.864
			l20.498-115.483h20.891v52.238h15.085v-52.238h20.891L302.241,496.915z M283.205,366.347h-14.762l22.073-88.34l-14.635-3.658
			l-22.573,90.338l-22.573-90.338l-14.635,3.658l22.073,88.34h-14.762l-94.616-202.106h13.029h20.961h16.255h57.354h33.828h57.355
			h16.254h20.961h13.029L283.205,366.347z M359.604,149.157h-11.082c0.007-0.044,0.011-0.092,0.017-0.136
			c0.082-0.54,0.144-1.094,0.211-1.644c0.052-0.425,0.116-0.843,0.159-1.274c0.06-0.602,0.098-1.219,0.14-1.832
			c0.027-0.396,0.067-0.783,0.087-1.184c0.036-0.725,0.048-1.466,0.06-2.206c0.005-0.302,0.022-0.595,0.023-0.899
			c0.004-1.053-0.015-2.119-0.059-3.201l-0.001-0.003c-0.109-2.639-0.352-5.336-0.721-8.016c-0.954-6.916-2.787-14.412-5.444-22.278
			c-0.309-0.914-0.645-1.836-0.998-2.763c-0.111-0.291-0.231-0.583-0.347-0.875c-0.253-0.643-0.512-1.287-0.786-1.935
			c-0.146-0.344-0.298-0.69-0.45-1.035c-0.266-0.607-0.539-1.217-0.824-1.828c-0.166-0.357-0.334-0.714-0.505-1.072
			c-0.297-0.62-0.605-1.241-0.92-1.865c-0.116-0.23-0.22-0.458-0.339-0.688c0.182-0.042,0.362-0.086,0.545-0.128
			c0.573-0.132,1.153-0.26,1.736-0.388c0.403-0.087,0.805-0.176,1.212-0.261c0.6-0.126,1.209-0.247,1.818-0.368
			c0.395-0.078,0.788-0.158,1.188-0.234c0.676-0.129,1.361-0.251,2.047-0.373c0.343-0.061,0.681-0.125,1.026-0.184
			c1.036-0.178,2.081-0.35,3.14-0.513c9.701-1.497,20.359-2.39,31.683-2.655c6.72-0.157,12.672-0.063,17.291,0.096
			C393.517,104.033,379.975,132.429,359.604,149.157z"/>
	</g>
</g>
<g>
	<g>
		<polygon points="457.868,107.914 450.38,115.402 442.815,107.835 432.147,118.502 450.38,136.735 468.535,118.579 		"/>
	</g>
</g>
<g>
	<g>
		<polygon points="69.187,243.334 61.697,250.822 54.131,243.256 43.465,253.923 61.697,272.155 79.852,254.001 		"/>
	</g>
</g>
<g>
	<g>
		<polygon points="372.298,398.525 364.809,406.013 357.244,398.446 346.577,409.113 364.809,427.346 382.964,409.191 		"/>
	</g>
</g>
</svg>