<?xml version="1.0" encoding="iso-8859-1"?>
<!-- Uploaded to: SVG Repo, www.svgrepo.com, Generator: SVG Repo Mixer Tools -->
<svg fill="#000000" height="800px" width="800px" version="1.1" id="Layer_1" xmlns="http://www.w3.org/2000/svg" xmlns:xlink="http://www.w3.org/1999/xlink" 
	 viewBox="0 0 511.999 511.999" xml:space="preserve">
<g>
	<g>
		<path d="M489.513,75.083l-32.488-32.489c-2.963-2.965-7.698-3.188-10.928-0.514l-28.843,23.88l-5.06-5.06
			c-3.174-3.173-8.319-3.173-11.491,0L265.165,196.437L307.04,59.517C314.679,34.54,300.573,8,275.597,0.356
			c-2.061-0.632-4.288-0.417-6.191,0.595c-1.904,1.012-3.327,2.737-3.957,4.799l-55.645,181.928
			c-1.312,4.292,1.102,8.835,5.394,10.148c4.294,1.313,8.835-1.103,10.148-5.394l52.953-173.127
			c11.604,7.298,17.397,21.738,13.201,35.46l-77.963,254.921l-18.417-18.417l23.492-76.818c1.312-4.292-1.102-8.835-5.394-10.148
			c-4.295-1.312-8.836,1.103-10.148,5.394l-20.967,68.561l-3.141-3.141c-1.794-1.794-4.33-2.647-6.837-2.307
			c-2.514,0.34-4.725,1.834-5.978,4.04l-24.412,43.007L36.467,425.128c-6.9,6.9-10.699,16.072-10.699,25.83s3.8,18.931,10.699,25.83
			l3.68,3.68l-17.66,17.66c-3.174,3.174-3.174,8.319,0,11.491c1.586,1.586,3.666,2.38,5.746,2.38c2.079,0,4.159-0.793,5.746-2.38
			l17.66-17.661l3.68,3.68c6.9,6.9,16.072,10.699,25.83,10.699s18.931-3.8,25.83-10.699l13.082-13.082
			c3.174-3.173,3.174-8.319,0-11.491c-3.174-3.174-8.319-3.174-11.491,0l-13.082,13.082c-3.83,3.83-8.922,5.939-14.339,5.939
			s-10.509-2.109-14.339-5.939l-18.851-18.85c-7.906-7.906-7.906-20.77,0-28.677l100.301-100.301l47.529,47.529l-68.258,68.258
			c-3.173,3.173-3.173,8.319,0,11.491c3.174,3.174,8.319,3.174,11.491,0l73.226-73.226l43.007-24.412
			c2.206-1.253,3.701-3.463,4.04-5.976c0.34-2.514-0.513-5.043-2.307-6.837l-3.761-3.761l165.299-165.3
			c3.173-3.174,3.173-8.319,0-11.491c-3.174-3.174-8.319-3.174-11.491,0L241.737,337.889l-15.19-15.19l28.489-93.154L406.447,78.138
			l47.522,47.522l-27.944,27.943c-3.173,3.174-3.173,8.319,0,11.491c3.174,3.175,8.319,3.173,11.491,0l33.69-33.689
			c1.524-1.523,2.38-3.591,2.38-5.746s-0.856-4.222-2.38-5.746l-5.061-5.061l23.88-28.842
			C492.699,82.781,492.477,78.047,489.513,75.083z M237.951,357.092l-29.301,16.634l-50.269-50.269l16.632-29.302L237.951,357.092z
			 M454.603,103.309l-25.807-25.807l21.966-18.187l22.027,22.028L454.603,103.309z"/>
	</g>
</g>
</svg>